<?xml version="1.0" encoding="UTF-8"?>
<svg version="1.1" xmlns="http://www.w3.org/2000/svg" width="512" height="512">
<path d="M0 0 C1.17926797 -0.00307895 1.17926797 -0.00307895 2.38235953 -0.0062201 C5.02673861 -0.01189161 7.67106562 -0.01043266 10.31544971 -0.00901413 C12.22654604 -0.01159768 14.13764183 -0.01461081 16.04873687 -0.01801753 C21.30846694 -0.02609198 26.56818336 -0.02787735 31.82791889 -0.028615 C37.49747228 -0.03046477 43.16701858 -0.03801171 48.83656788 -0.04475021 C61.23737324 -0.0583371 73.63817536 -0.06435878 86.03898692 -0.06876087 C93.78055404 -0.07152262 101.52211991 -0.07575985 109.26368618 -0.08026505 C130.69346756 -0.09245805 152.12324731 -0.10279276 173.55303192 -0.10614014 C174.93866868 -0.10636177 176.32430545 -0.10658355 177.70994221 -0.10680549 C179.09891269 -0.10702613 180.48788317 -0.10724661 181.87685364 -0.10746694 C184.66333656 -0.10790949 187.44981947 -0.1083566 190.23630238 -0.10880661 C190.92718736 -0.108916 191.61807235 -0.10902539 192.32989325 -0.1091381 C214.7314347 -0.11276866 237.13294379 -0.12868899 259.53447285 -0.15199697 C283.22212167 -0.17659803 306.90974658 -0.19030638 330.59740955 -0.19150805 C343.5085749 -0.19242516 356.41969787 -0.19818636 369.33085155 -0.21632767 C380.32443974 -0.23172008 391.31797245 -0.23685416 402.31156936 -0.22858956 C407.92084784 -0.22468008 413.53001459 -0.22562736 419.13927937 -0.23964691 C424.27582575 -0.2523676 429.41217621 -0.25120431 434.54872224 -0.2390562 C436.40540247 -0.23709604 438.26209649 -0.24019233 440.11875733 -0.24890056 C463.26869698 -0.35059201 463.26869698 -0.35059201 472.16623402 7.13142776 C477.34314276 13.05500604 480.41145626 18.15297767 480.42629623 26.1848135 C480.43336183 27.4077902 480.44042742 28.63076691 480.44770712 29.89080352 C480.44545584 31.2447902 480.44300935 32.59877658 480.44038868 33.9527626 C480.44484156 35.39363391 480.45015577 36.83450277 480.4562574 38.27536803 C480.4704421 42.23533486 480.47210061 46.19522321 480.47166049 50.15521181 C480.4733083 54.42599193 480.48637419 58.69673968 480.49785328 62.96750259 C480.52070575 72.30642262 480.52862423 81.64531994 480.53367972 90.98426414 C480.5369366 96.81622325 480.54345905 102.64817577 480.55068111 108.48013115 C480.57024774 124.62907289 480.58665146 140.77800849 480.58955765 156.92696285 C480.58974522 157.96043557 480.58993279 158.99390828 480.59012604 160.05869834 C480.59049229 162.15378018 480.59085599 164.24886202 480.59121715 166.34394386 C480.59139996 167.38393806 480.59158277 168.42393226 480.59177113 169.49544144 C480.59204195 171.05733827 480.59204195 171.05733827 480.59231824 172.65078858 C480.59585956 189.52140642 480.62287902 206.39189659 480.66026901 223.26247015 C480.69835492 240.58577367 480.71771515 257.90901386 480.71801716 275.23236018 C480.71860168 284.95776412 480.72709035 294.68301578 480.75601482 304.40838051 C480.78053254 312.69011642 480.787809 320.97164451 480.7727673 329.2534069 C480.76559985 333.47751342 480.76644843 337.70120961 480.78917789 341.92527008 C480.80980781 345.79630586 480.80713079 349.66661692 480.78630305 353.5376452 C480.78281575 354.93403596 480.78768603 356.33047944 480.80200749 357.72680112 C480.89166366 367.07458776 479.95219744 374.90716198 473.4240064 382.03320998 C466.28516134 388.74771068 458.00168762 390.29063752 448.46571827 390.25168228 C447.31387365 390.25296392 447.31387365 390.25296392 446.13875943 390.25427145 C443.57001291 390.25591636 441.00133193 390.25042107 438.43259144 390.24495316 C436.58951284 390.24467104 434.74643413 390.24482949 432.9033556 390.24539566 C427.90173524 390.2456827 422.90013884 390.23980099 417.89852405 390.2328217 C412.67081146 390.22657269 407.44309832 390.22598314 402.21538258 390.2247963 C392.31678093 390.22168755 382.41819032 390.21348031 372.51959354 390.20344681 C361.25004416 390.1922715 349.98049426 390.18677164 338.71094072 390.18175137 C315.5293657 390.17129733 292.34780048 390.15370671 269.16623402 390.13142776 C269.45515175 393.45378363 269.75509487 396.7750598 270.05685902 400.09627151 C270.13758656 401.02612869 270.21831409 401.95598587 270.30148792 402.91402054 C272.01318585 421.5266978 277.27725036 438.33756696 292.06467152 450.72127151 C302.10691207 457.69151865 314.07136067 458.68773922 325.91623402 458.69392776 C344.97818417 458.76277898 344.97818417 458.76277898 352.04123402 464.44392776 C356.06533721 469.53323475 357.70041129 473.50666004 357.45139027 479.95955276 C356.70028778 485.68027858 353.50925278 489.56050123 349.16623402 493.13142776 C343.04387624 495.91571622 338.04899635 496.56303742 331.37448597 496.51237869 C330.41774384 496.51705866 329.46100172 496.52173864 328.47526741 496.52656043 C325.28487366 496.53848018 322.09491184 496.52906486 318.90451527 496.51961136 C316.61092345 496.52367839 314.3173336 496.52902101 312.02374744 496.53554153 C305.80482513 496.54920517 299.58605231 496.54392031 293.36712742 496.53440428 C286.85525329 496.52680281 280.34339186 496.53385465 273.83151722 496.53856277 C262.19633052 496.54436825 250.56121196 496.53505212 238.926036 496.51978476 C228.38595118 496.50638232 217.84596549 496.50871064 207.30588245 496.52254105 C195.05299849 496.53861151 182.80018508 496.54456317 170.5472908 496.53570426 C164.0659691 496.53103 157.58471563 496.53039618 151.10339832 496.54031372 C145.00975855 496.54898692 138.91630579 496.54295474 132.8226862 496.52563095 C130.58781336 496.52166804 128.35292475 496.52279679 126.1180582 496.52941895 C123.06448783 496.53763202 120.01151453 496.52731526 116.95798206 496.51237869 C116.07625985 496.51907086 115.19453764 496.52576302 114.28609657 496.53265798 C107.40378523 496.46748261 101.81623489 495.31031737 96.35373402 490.81892776 C92.24397792 485.76979885 90.63163422 481.76714424 90.88107777 475.30330276 C91.6295035 469.60296427 94.79518555 465.6472711 99.16623402 462.13142776 C107.62742783 457.93745429 116.95666735 458.6967802 126.15451527 458.69197464 C140.34111027 458.47567009 151.61622965 455.01718876 162.12717152 445.32283401 C173.80053823 433.0632502 176.86393318 416.35660755 178.27560902 400.09627151 C178.40685169 398.65181656 178.40685169 398.65181656 178.54074574 397.17818069 C178.75352326 394.82961236 178.96193329 392.48074603 179.16623402 390.13142776 C177.734439 390.13557583 177.734439 390.13557583 176.27371883 390.1398077 C153.02884645 390.20645896 129.78398648 390.25573002 106.53903866 390.28686428 C95.29787388 390.30232145 84.05677229 390.32338902 72.81564808 390.35774612 C63.01585881 390.38768364 53.21611531 390.40701113 43.41628158 390.41369325 C38.22918745 390.41759812 33.04222425 390.42675122 27.85517216 390.44861794 C22.96819314 390.46905181 18.08139844 390.47524763 13.19438076 390.47075081 C11.40540724 390.47157293 9.61642725 390.4774973 7.82749081 390.48904419 C-14.62516464 390.62680095 -14.62516464 390.62680095 -23.83376598 383.13142776 C-31.96405639 374.62298432 -32.27545483 367.35119201 -32.22817516 356.06958389 C-32.23306704 354.62698448 -32.23925823 353.18438899 -32.24663305 351.74180013 C-32.26301826 347.78631176 -32.26071756 343.8310229 -32.25525808 339.87551248 C-32.25258612 335.60612255 -32.26712285 331.3367856 -32.27935314 327.06741714 C-32.30040262 318.70629263 -32.30494826 310.34523746 -32.30316526 301.98408958 C-32.30185733 295.18704112 -32.30566333 288.39001428 -32.31309032 281.59296989 C-32.31518954 279.63463905 -32.31728714 277.6763082 -32.31938314 275.71797734 C-32.32042667 274.74323818 -32.3214702 273.76849902 -32.32254535 272.7642223 C-32.34144594 254.3310086 -32.34039814 235.8978347 -32.33357602 217.46461532 C-32.32800127 200.60705249 -32.34882342 183.74964167 -32.38193649 166.89211436 C-32.41568255 149.57778137 -32.43084064 132.26352117 -32.42621946 114.94915468 C-32.42397563 105.23049509 -32.42920536 95.51197597 -32.45411205 85.7933445 C-32.47513703 77.51896757 -32.47870533 69.24480813 -32.45981246 60.97042223 C-32.4506618 56.75035877 -32.44949077 52.5307007 -32.47016811 48.31066895 C-32.48890705 44.4434031 -32.4843427 40.57687383 -32.4616223 36.70963577 C-32.45744381 35.31465503 -32.46161135 33.91961749 -32.47521824 32.52469685 C-32.56009999 23.18279984 -31.61523189 15.35100718 -25.09156466 8.22959298 C-17.90956613 1.47484391 -9.58591089 -0.02328592 0 0 Z " fill="#EAB916" transform="translate(31.833765983581543,7.868572235107422)"/>
<path d="M0 0 C1.17926797 -0.00307895 1.17926797 -0.00307895 2.38235953 -0.0062201 C5.02673861 -0.01189161 7.67106562 -0.01043266 10.31544971 -0.00901413 C12.22654604 -0.01159768 14.13764183 -0.01461081 16.04873687 -0.01801753 C21.30846694 -0.02609198 26.56818336 -0.02787735 31.82791889 -0.028615 C37.49747228 -0.03046477 43.16701858 -0.03801171 48.83656788 -0.04475021 C61.23737324 -0.0583371 73.63817536 -0.06435878 86.03898692 -0.06876087 C93.78055404 -0.07152262 101.52211991 -0.07575985 109.26368618 -0.08026505 C130.69346756 -0.09245805 152.12324731 -0.10279276 173.55303192 -0.10614014 C174.93866868 -0.10636177 176.32430545 -0.10658355 177.70994221 -0.10680549 C179.09891269 -0.10702613 180.48788317 -0.10724661 181.87685364 -0.10746694 C184.66333656 -0.10790949 187.44981947 -0.1083566 190.23630238 -0.10880661 C190.92718736 -0.108916 191.61807235 -0.10902539 192.32989325 -0.1091381 C214.7314347 -0.11276866 237.13294379 -0.12868899 259.53447285 -0.15199697 C283.22212167 -0.17659803 306.90974658 -0.19030638 330.59740955 -0.19150805 C343.5085749 -0.19242516 356.41969787 -0.19818636 369.33085155 -0.21632767 C380.32443974 -0.23172008 391.31797245 -0.23685416 402.31156936 -0.22858956 C407.92084784 -0.22468008 413.53001459 -0.22562736 419.13927937 -0.23964691 C424.27582575 -0.2523676 429.41217621 -0.25120431 434.54872224 -0.2390562 C436.40540247 -0.23709604 438.26209649 -0.24019233 440.11875733 -0.24890056 C463.26869698 -0.35059201 463.26869698 -0.35059201 472.16623402 7.13142776 C477.04295904 12.71152659 480.41870274 17.81000255 480.41232967 25.41626072 C480.41631177 26.46775124 480.42029387 27.51924176 480.42439663 28.60259563 C480.41857095 29.75142496 480.41274527 30.90025429 480.40674305 32.08389664 C480.40930632 33.92177806 480.40930632 33.92177806 480.41192138 35.79678839 C480.41464626 39.19464826 480.40839503 42.59227779 480.39836526 45.9901098 C480.3897292 49.65535944 480.39265103 53.32060196 480.39416981 56.98585892 C480.39521856 63.33514275 480.38894297 69.68438548 480.37769413 76.03365898 C480.36144078 85.21363921 480.35623129 94.39359957 480.35371815 103.57359263 C480.34934079 118.46747537 480.33603056 133.36133621 480.31711292 148.25520706 C480.29875519 162.72330492 480.28462109 177.1913968 480.2760973 191.65950394 C480.2755613 192.56039735 480.27502531 193.46129077 480.27447307 194.38948399 C480.27031423 201.43505134 480.26640038 208.48061882 480.26256394 215.52618635 C480.24369623 250.06128693 480.2034597 284.59633267 480.16623402 319.13142776 C395.68623402 319.13142776 311.20623402 319.13142776 224.16623402 319.13142776 C224.16623402 225.74142776 224.16623402 132.35142776 224.16623402 36.13142776 C151.23623402 36.13142776 78.30623402 36.13142776 3.16623402 36.13142776 C3.16623402 129.52142776 3.16623402 222.91142776 3.16623402 319.13142776 C-8.38376598 319.13142776 -19.93376598 319.13142776 -31.83376598 319.13142776 C-31.94683517 281.2108427 -32.03633416 243.29030201 -32.08909263 205.36958224 C-32.09534605 200.89110859 -32.10181767 196.41263528 -32.10842419 191.93416214 C-32.10973574 191.04259143 -32.11104729 190.15102071 -32.11239859 189.23243271 C-32.13414586 174.80261508 -32.17356365 160.37289721 -32.21952996 145.94313873 C-32.26631348 131.13315415 -32.29406539 116.32322175 -32.30420846 101.51316631 C-32.31106369 92.37700648 -32.33270294 83.24112863 -32.37334832 74.10505562 C-32.39981009 67.83723051 -32.40775922 61.56955085 -32.40127287 55.30167396 C-32.39807528 51.68716618 -32.40292233 48.07315061 -32.42979336 44.4587307 C-32.45875699 40.53402989 -32.4486757 36.60996503 -32.43503857 32.68516922 C-32.44960277 31.55090409 -32.46416698 30.41663897 -32.47917253 29.24800217 C-32.40304997 21.13167919 -30.68118471 14.3474806 -25.0914858 8.22221386 C-17.8921517 1.48337103 -9.59380053 -0.02330508 0 0 Z " fill="#28384C" transform="translate(31.833765983581543,7.868572235107422)"/>
<path d="M0 0 C168.96 0 337.92 0 512 0 C512 55.90740741 512 55.90740741 503.625 64.4375 C496.52696907 69.89989771 489.08638239 71.15614974 480.29948425 71.12025452 C479.14763963 71.12153615 479.14763963 71.12153615 477.97252542 71.12284368 C475.40377889 71.12448859 472.83509791 71.11899331 470.26635742 71.11352539 C468.42327882 71.11324328 466.58020011 71.11340172 464.73712158 71.1139679 C459.73550122 71.11425494 454.73390482 71.10837323 449.73229003 71.10139394 C444.50457744 71.09514492 439.27686431 71.09455537 434.04914856 71.09336853 C424.15054691 71.09025979 414.25195631 71.08205254 404.35335952 71.07201904 C393.08381014 71.06084373 381.81426024 71.05534387 370.5447067 71.05032361 C347.36313168 71.03986957 324.18156646 71.02227895 301 71 C301.28891773 74.32235587 301.58886086 77.64363204 301.890625 80.96484375 C301.97135254 81.89470093 302.05208008 82.82455811 302.13525391 83.78259277 C303.84695184 102.39527004 309.11101634 119.2061392 323.8984375 131.58984375 C333.94067805 138.56009088 345.90512665 139.55631146 357.75 139.5625 C376.81195016 139.63135121 376.81195016 139.63135121 383.875 145.3125 C387.89910319 150.40180698 389.53417728 154.37523227 389.28515625 160.828125 C388.53405376 166.54885082 385.34301876 170.42907346 381 174 C374.87764222 176.78428845 369.88276234 177.43160966 363.20825195 177.38095093 C362.25150983 177.3856309 361.2947677 177.39031087 360.30903339 177.39513266 C357.11863964 177.40705242 353.92867783 177.39763709 350.73828125 177.38818359 C348.44468943 177.39225063 346.15109958 177.39759324 343.85751343 177.40411377 C337.63859111 177.4177774 331.41981829 177.41249255 325.2008934 177.40297651 C318.68901927 177.39537505 312.17715784 177.40242689 305.6652832 177.40713501 C294.0300965 177.41294049 282.39497795 177.40362435 270.75980198 177.388357 C260.21971716 177.37495455 249.67973147 177.37728288 239.13964844 177.39111328 C226.88676447 177.40718375 214.63395106 177.41313541 202.38105679 177.40427649 C195.89973508 177.39960223 189.41848161 177.39896841 182.93716431 177.40888596 C176.84352454 177.41755916 170.75007177 177.41152698 164.65645218 177.39420319 C162.42157934 177.39024028 160.18669073 177.39136902 157.95182419 177.39799118 C154.89825381 177.40620426 151.84528052 177.3958875 148.79174805 177.38095093 C147.91002584 177.38764309 147.02830362 177.39433526 146.11986256 177.40123022 C139.23755122 177.33605484 133.65000087 176.17888961 128.1875 171.6875 C124.07774391 166.63837108 122.4654002 162.63571648 122.71484375 156.171875 C123.46326949 150.4715365 126.62895153 146.51584333 131 143 C139.46119381 138.80602652 148.79043334 139.56535244 157.98828125 139.56054688 C172.17487626 139.34424232 183.44999563 135.885761 193.9609375 126.19140625 C205.63430421 113.93182244 208.69769916 97.22517978 210.109375 80.96484375 C210.24061768 79.52038879 210.24061768 79.52038879 210.37451172 78.04675293 C210.58728924 75.6981846 210.79569928 73.34931826 211 71 C209.56820498 71.00414807 209.56820498 71.00414807 208.10748482 71.00837994 C184.86261243 71.0750312 161.61775246 71.12430226 138.37280464 71.15543652 C127.13163986 71.17089368 115.89053828 71.19196126 104.64941406 71.22631836 C94.84962479 71.25625588 85.0498813 71.27558336 75.25004756 71.28226548 C70.06295343 71.28617035 64.87599024 71.29532346 59.68893814 71.31719017 C54.80195913 71.33762405 49.91516442 71.34381986 45.02814674 71.33932304 C43.23917322 71.34014516 41.45019324 71.34606954 39.66125679 71.35761642 C17.20860134 71.49537318 17.20860134 71.49537318 8 64 C-8.53905061 46.69169122 0 24.0837929 0 0 Z " fill="#E6EBEC" transform="translate(0,327)"/>
<path d="M0 0 C1.17926797 -0.00307895 1.17926797 -0.00307895 2.38235953 -0.0062201 C5.02673861 -0.01189161 7.67106562 -0.01043266 10.31544971 -0.00901413 C12.22654604 -0.01159768 14.13764183 -0.01461081 16.04873687 -0.01801753 C21.30846694 -0.02609198 26.56818336 -0.02787735 31.82791889 -0.028615 C37.49747228 -0.03046477 43.16701858 -0.03801171 48.83656788 -0.04475021 C61.23737324 -0.0583371 73.63817536 -0.06435878 86.03898692 -0.06876087 C93.78055404 -0.07152262 101.52211991 -0.07575985 109.26368618 -0.08026505 C130.69346756 -0.09245805 152.12324731 -0.10279276 173.55303192 -0.10614014 C174.93866868 -0.10636177 176.32430545 -0.10658355 177.70994221 -0.10680549 C179.09891269 -0.10702613 180.48788317 -0.10724661 181.87685364 -0.10746694 C184.66333656 -0.10790949 187.44981947 -0.1083566 190.23630238 -0.10880661 C190.92718736 -0.108916 191.61807235 -0.10902539 192.32989325 -0.1091381 C214.7314347 -0.11276866 237.13294379 -0.12868899 259.53447285 -0.15199697 C283.22212167 -0.17659803 306.90974658 -0.19030638 330.59740955 -0.19150805 C343.5085749 -0.19242516 356.41969787 -0.19818636 369.33085155 -0.21632767 C380.32443974 -0.23172008 391.31797245 -0.23685416 402.31156936 -0.22858956 C407.92084784 -0.22468008 413.53001459 -0.22562736 419.13927937 -0.23964691 C424.27582575 -0.2523676 429.41217621 -0.25120431 434.54872224 -0.2390562 C436.40540247 -0.23709604 438.26209649 -0.24019233 440.11875733 -0.24890056 C463.26869698 -0.35059201 463.26869698 -0.35059201 472.16623402 7.13142776 C477.04295904 12.71152659 480.41870274 17.81000255 480.41232967 25.41626072 C480.41631177 26.46775124 480.42029387 27.51924176 480.42439663 28.60259563 C480.41857095 29.75142496 480.41274527 30.90025429 480.40674305 32.08389664 C480.40930632 33.92177806 480.40930632 33.92177806 480.41192138 35.79678839 C480.41464626 39.19464826 480.40839503 42.59227779 480.39836526 45.9901098 C480.3897292 49.65535944 480.39265103 53.32060196 480.39416981 56.98585892 C480.39521856 63.33514275 480.38894297 69.68438548 480.37769413 76.03365898 C480.36144078 85.21363921 480.35623129 94.39359957 480.35371815 103.57359263 C480.34934079 118.46747537 480.33603056 133.36133621 480.31711292 148.25520706 C480.29875519 162.72330492 480.28462109 177.1913968 480.2760973 191.65950394 C480.2755613 192.56039735 480.27502531 193.46129077 480.27447307 194.38948399 C480.27031423 201.43505134 480.26640038 208.48061882 480.26256394 215.52618635 C480.24369623 250.06128693 480.2034597 284.59633267 480.16623402 319.13142776 C395.68623402 319.13142776 311.20623402 319.13142776 224.16623402 319.13142776 C224.16623402 318.80142776 224.16623402 318.47142776 224.16623402 318.13142776 C297.09623402 318.13142776 370.02623402 318.13142776 445.16623402 318.13142776 C445.16623402 225.07142776 445.16623402 132.01142776 445.16623402 36.13142776 C299.30623402 36.13142776 153.44623402 36.13142776 3.16623402 36.13142776 C3.16623402 129.52142776 3.16623402 222.91142776 3.16623402 319.13142776 C-8.38376598 319.13142776 -19.93376598 319.13142776 -31.83376598 319.13142776 C-31.94683517 281.2108427 -32.03633416 243.29030201 -32.08909263 205.36958224 C-32.09534605 200.89110859 -32.10181767 196.41263528 -32.10842419 191.93416214 C-32.10973574 191.04259143 -32.11104729 190.15102071 -32.11239859 189.23243271 C-32.13414586 174.80261508 -32.17356365 160.37289721 -32.21952996 145.94313873 C-32.26631348 131.13315415 -32.29406539 116.32322175 -32.30420846 101.51316631 C-32.31106369 92.37700648 -32.33270294 83.24112863 -32.37334832 74.10505562 C-32.39981009 67.83723051 -32.40775922 61.56955085 -32.40127287 55.30167396 C-32.39807528 51.68716618 -32.40292233 48.07315061 -32.42979336 44.4587307 C-32.45875699 40.53402989 -32.4486757 36.60996503 -32.43503857 32.68516922 C-32.44960277 31.55090409 -32.46416698 30.41663897 -32.47917253 29.24800217 C-32.40304997 21.13167919 -30.68118471 14.3474806 -25.0914858 8.22221386 C-17.8921517 1.48337103 -9.59380053 -0.02330508 0 0 Z " fill="#495D72" transform="translate(31.833765983581543,7.868572235107422)"/>
<path d="M0 0 C1.42308582 -0.00701996 1.42308582 -0.00701996 2.87492085 -0.01418173 C6.03223752 -0.02608238 9.18911618 -0.01669373 12.34643555 -0.00723267 C14.61884818 -0.01130055 16.89125884 -0.01664364 19.16366577 -0.02316284 C25.32061507 -0.03681635 31.47741321 -0.03154581 37.63436508 -0.02202559 C44.08437247 -0.01441886 50.5343671 -0.02147742 56.984375 -0.02618408 C68.50835789 -0.03198784 80.03226366 -0.02267751 91.55623448 -0.00740607 C101.99252038 0.00599611 112.42870614 0.0036677 122.86499023 -0.01016235 C135.00143054 -0.02623804 147.13779231 -0.03218171 159.27424526 -0.02332556 C165.69242697 -0.0186537 172.11053979 -0.01801088 178.52871704 -0.02793503 C184.56327794 -0.03661459 190.59765014 -0.03056446 196.6321907 -0.01325226 C198.84406852 -0.00929274 201.05596228 -0.01041227 203.26783371 -0.01704025 C206.29253818 -0.02526681 209.31664213 -0.01492042 212.34130859 0 C213.21165395 -0.00669217 214.0819993 -0.01338433 214.97871876 -0.02027929 C222.04561414 0.04710023 228.44296986 1.18694388 234.0456543 5.69345093 C238.06975749 10.78275791 239.70483157 14.7561832 239.45581055 21.20907593 C238.70470806 26.92980174 235.51367306 30.81002439 231.1706543 34.38095093 C225.04829652 37.16523938 220.05341663 37.81256058 213.37890625 37.76190186 C212.42216413 37.76658183 211.465422 37.7712618 210.47968769 37.77608359 C207.28929394 37.78800334 204.09933212 37.77858802 200.90893555 37.76913452 C198.61534373 37.77320155 196.32175388 37.77854417 194.02816772 37.7850647 C187.80924541 37.79872833 181.59047259 37.79344348 175.3715477 37.78392744 C168.85967357 37.77632598 162.34781214 37.78337781 155.8359375 37.78808594 C144.2007508 37.79389142 132.56563224 37.78457528 120.93045628 37.76930793 C110.39037146 37.75590548 99.85038577 37.75823381 89.31030273 37.77206421 C77.05741877 37.78813468 64.80460536 37.79408633 52.55171108 37.78522742 C46.07038938 37.78055316 39.58913591 37.77991934 33.1078186 37.78983688 C27.01417883 37.79851009 20.92072607 37.7924779 14.82710648 37.77515411 C12.59223364 37.7711912 10.35734503 37.77231995 8.12247849 37.77894211 C5.06890811 37.78715519 2.01593481 37.77683843 -1.03759766 37.76190186 C-1.91931987 37.76859402 -2.80104208 37.77528619 -3.70948315 37.78218114 C-10.59179449 37.71700577 -16.17934483 36.55984053 -21.6418457 32.06845093 C-25.7516018 27.01932201 -27.3639455 23.0166674 -27.11450195 16.55282593 C-26.36607621 10.85248743 -23.20039417 6.89679426 -18.8293457 3.38095093 C-12.62221118 0.54891112 -6.74236108 -0.05184263 0 0 Z " fill="#E6EBEC" transform="translate(149.829345703125,466.6190490722656)"/>
<path d="M0 0 C0.81769867 0.00202423 1.63539734 0.00404846 2.47787476 0.00613403 C3.76315567 0.00350555 3.76315567 0.00350555 5.07440186 0.00082397 C7.9211527 -0.00359561 10.76784197 -0.00065618 13.61459351 0.00271606 C15.58375053 0.00204306 17.55290747 0.00107306 19.52206421 -0.00018311 C23.65480335 -0.00166022 27.78752093 0.00049492 31.92025757 0.00515747 C37.23033871 0.01085476 42.54036932 0.00757583 47.85044861 0.00158501 C51.91834904 -0.00202023 55.9862374 -0.00088219 60.05413818 0.0017128 C62.01265468 0.00238217 63.97117226 0.00155329 65.9296875 -0.00076675 C68.6619255 -0.00329267 71.39408047 0.00054645 74.12631226 0.00613403 C74.94401093 0.0041098 75.76170959 0.00208557 76.60418701 0 C82.18783105 0.02126611 82.18783105 0.02126611 83.30209351 1.13552856 C83.48129836 2.50643631 83.60185142 3.88511599 83.69662476 5.26443481 C85.28858273 26.04725203 88.2945124 45.20062042 104.30209351 60.13552856 C112.22744285 66.77260095 123.18148446 69.34175531 133.30209351 70.13552856 C133.30209351 70.46552856 133.30209351 70.79552856 133.30209351 71.13552856 C70.27209351 71.13552856 7.24209351 71.13552856 -57.69790649 71.13552856 C-57.69790649 70.80552856 -57.69790649 70.47552856 -57.69790649 70.13552856 C-56.80329712 70.03755981 -55.90868774 69.93959106 -54.98696899 69.83865356 C-40.68759328 68.07028727 -29.32676904 63.73472072 -20.10025024 52.18240356 C-9.9126157 37.31243002 -8.13236398 20.39938559 -6.93154907 2.92288208 C-6.40843354 -1.07892443 -3.38578022 0.01289523 0 0 Z " fill="#AFB6BB" transform="translate(217.69790649414063,396.8644714355469)"/>
<path d="M0 0 C0.86862167 -0.0049649 1.73724335 -0.00992981 2.63218689 -0.01504517 C5.50894968 -0.02966315 8.38565732 -0.03646835 11.26245117 -0.04199219 C13.26161195 -0.04774413 15.26077272 -0.05350186 17.25993347 -0.05926514 C21.45389056 -0.06977422 25.64782847 -0.07561743 29.84179688 -0.07910156 C35.21195554 -0.08458474 40.58186047 -0.10860945 45.95193958 -0.13707352 C50.08266435 -0.15571129 54.21332815 -0.16090612 58.34409142 -0.16243744 C60.32360915 -0.16546214 62.30312586 -0.1734845 64.28260231 -0.18662262 C67.05448242 -0.20370608 69.82574463 -0.20179718 72.59765625 -0.1953125 C73.41293793 -0.20452728 74.2282196 -0.21374207 75.06820679 -0.22323608 C79.93256674 -0.18764642 83.29362468 0.43920433 87.49291992 3.16113281 C89.99323647 6.91160763 90.02895546 8.71969547 89.49291992 13.16113281 C87.50832658 15.89342409 85.92148032 17.82747529 82.52998352 18.6196003 C80.10148163 18.80599612 77.71945363 18.82525307 75.28393555 18.79223633 C74.36464767 18.79939163 73.4453598 18.80654694 72.49821472 18.81391907 C69.46469163 18.83080403 66.43264677 18.81140437 63.39916992 18.79003906 C61.28836952 18.79086778 59.17756919 18.79332725 57.06677246 18.79734802 C52.64498447 18.8002059 48.22370304 18.78550544 43.80200195 18.75805664 C38.13568104 18.72397427 32.47026594 18.72999239 26.80390167 18.74871922 C22.44582579 18.75929059 18.08796048 18.75035004 13.72990417 18.7353344 C11.640728 18.73015316 9.55152983 18.73063366 7.46235657 18.73687935 C4.54172525 18.74233309 1.62238813 18.72195087 -1.2980957 18.69458008 C-2.16058426 18.70110596 -3.02307281 18.70763184 -3.91169739 18.71435547 C-7.91043028 18.65067311 -10.02272979 18.45484604 -13.5123291 16.33872986 C-16.3320249 13.26057057 -16.65007872 11.30809343 -16.50708008 7.16113281 C-12.60690957 0.05838326 -7.37924519 0.01004311 0 0 Z " fill="#25AA86" transform="translate(360.507080078125,281.8388671875)"/>
<path d="M0 0 C1.36189201 -0.0131424 1.36189201 -0.0131424 2.751297 -0.02655029 C5.74752841 -0.0485263 8.74227941 -0.03399654 11.73852539 -0.01708984 C13.82451154 -0.02045878 15.91049578 -0.02531205 17.99647522 -0.03158569 C22.366981 -0.03895485 26.73697556 -0.02825091 31.10742188 -0.00488281 C36.70426919 0.02358693 42.29991676 0.00721214 47.89671993 -0.02274513 C52.20423892 -0.04083181 56.51147453 -0.0350534 60.81900215 -0.02210617 C62.88223984 -0.01877505 64.94550341 -0.02284888 67.00871086 -0.03450394 C69.89582088 -0.04723295 72.78100205 -0.02780585 75.66796875 0 C76.51751129 -0.01012115 77.36705383 -0.02024231 78.24234009 -0.03067017 C82.43179213 0.04391458 85.10203964 0.38703157 88.42579651 3.0585022 C90.89868164 5.64697266 90.89868164 5.64697266 91.69555664 7.70947266 C91.68008789 8.34884766 91.66461914 8.98822266 91.64868164 9.64697266 C91.67188477 10.60603516 91.67188477 10.60603516 91.69555664 11.58447266 C90.39852143 14.94150497 87.93612671 16.891493 84.89868164 18.64697266 C81.81419173 19.35448722 78.8225232 19.33152758 75.66796875 19.29394531 C74.75828842 19.30270691 73.84860809 19.31146851 72.91136169 19.32049561 C69.91575903 19.34243482 66.92164206 19.3279574 63.92602539 19.31103516 C61.83907285 19.31440457 59.75212222 19.31925823 57.66517639 19.32553101 C53.29645053 19.33289468 48.92823658 19.32221171 44.55957031 19.29882812 C38.96153299 19.27032332 33.36469332 19.28675885 27.76669979 19.31669044 C23.45922324 19.33476177 19.15203049 19.32900637 14.84454536 19.31605148 C12.78048116 19.31271795 10.71639113 19.31680268 8.6523571 19.32844925 C5.76754399 19.34115693 2.88466883 19.32178266 0 19.29394531 C-1.27735016 19.30912704 -1.27735016 19.30912704 -2.58050537 19.32461548 C-6.94309762 19.24667079 -8.59771697 19.04813481 -12.12864685 16.23544312 C-14.03754068 13.73065949 -14.78842465 12.72744492 -14.72631836 9.64697266 C-14.73920898 9.00759766 -14.75209961 8.36822266 -14.76538086 7.70947266 C-12.37312764 0.27941561 -6.6599545 -0.07915578 0 0 Z " fill="#E8881A" transform="translate(359.101318359375,246.35302734375)"/>
<path d="M0 0 C1.37893181 -0.0131424 1.37893181 -0.0131424 2.78572083 -0.02655029 C5.81921834 -0.04852586 8.85125374 -0.03399783 11.88476562 -0.01708984 C13.99556762 -0.0204585 16.10636773 -0.02531153 18.21716309 -0.03158569 C22.6389413 -0.03895454 27.06021417 -0.02825076 31.48193359 -0.00488281 C37.14837619 0.02360455 42.81363472 0.00720071 48.48003387 -0.02274513 C52.83812371 -0.04081751 57.19593306 -0.03506026 61.55403137 -0.02210617 C63.64321533 -0.01877202 65.73242481 -0.02285955 67.82157898 -0.03450394 C70.74241531 -0.04721133 73.66133743 -0.0278367 76.58203125 0 C77.44451981 -0.01012115 78.30700836 -0.02024231 79.19563293 -0.03067017 C83.52311498 0.04569315 85.28269024 0.25831064 88.82751465 2.96865845 C90.79101562 5.64697266 90.79101562 5.64697266 91.41601562 9.14697266 C90.64024126 13.49130908 89.17322898 14.90899042 85.79101562 17.64697266 C82.5157814 19.28458977 78.88993822 18.80329079 75.28979492 18.80810547 C73.97004166 18.81555283 73.97004166 18.81555283 72.62362671 18.82315063 C69.70415472 18.83779158 66.78473709 18.84457777 63.86523438 18.85009766 C61.83982847 18.85584789 59.81442259 18.86160563 57.78901672 18.86737061 C53.53780869 18.87788635 49.2866196 18.88372514 45.03540039 18.88720703 C39.5877668 18.89269041 34.14038334 18.91671275 28.69282818 18.94517899 C24.50724049 18.96380312 20.32171304 18.96901087 16.13608742 18.97054291 C14.1278325 18.97357089 12.11957868 18.98160431 10.11136436 18.99472809 C7.30085617 19.01178241 4.49095887 19.00990971 1.68041992 19.00341797 C0.85062119 19.01263275 0.02082245 19.02184753 -0.8341217 19.03134155 C-6.64268782 18.98931218 -10.00047738 17.85547965 -14.20898438 13.64697266 C-15.00589746 6.70244434 -15.00589746 6.70244434 -12.24963379 3.0519104 C-8.10165388 -0.22884713 -5.14467705 -0.0603719 0 0 Z " fill="#723489" transform="translate(297.208984375,211.35302734375)"/>
<path d="M0 0 C0.91928787 -0.00861557 1.83857574 -0.01723114 2.78572083 -0.02610779 C5.81902361 -0.04877753 8.85140336 -0.04202737 11.88476562 -0.03295898 C13.99556757 -0.03819385 16.10636718 -0.04446982 18.21716309 -0.05174255 C22.63886531 -0.06214844 27.06024575 -0.05758203 31.48193359 -0.04296875 C37.14834251 -0.02577469 42.81373803 -0.04928342 48.48003387 -0.08445835 C52.8381014 -0.10641712 57.19592582 -0.10499461 61.55403137 -0.09669304 C63.64322522 -0.09587281 65.73243679 -0.10274987 67.82157898 -0.11746407 C70.74236397 -0.13488295 73.6613199 -0.12038969 76.58203125 -0.09765625 C77.44451981 -0.10934845 78.30700836 -0.12104065 79.19563293 -0.13308716 C83.52480575 -0.0645243 85.28053098 0.14330104 88.82751465 2.85414124 C90.79101562 5.53344727 90.79101562 5.53344727 91.41601562 9.03344727 C90.63690607 13.39646075 89.22509985 14.81812486 85.79101562 17.53344727 C81.91610595 18.82508382 78.23211992 18.70560088 74.19213867 18.72631836 C73.31376343 18.73449585 72.43538818 18.74267334 71.53039551 18.75109863 C68.62118205 18.77592806 65.71201727 18.79246157 62.80273438 18.80688477 C61.80901133 18.81220844 60.81528828 18.81753212 59.79145241 18.82301712 C54.53260698 18.84973686 49.2737852 18.86911634 44.01489258 18.88354492 C38.58403237 18.9001984 33.15377832 18.94498559 27.72314739 18.99591637 C23.54609988 19.02957164 19.36919667 19.0411204 15.19202614 19.046772 C13.19014663 19.05348819 11.18827674 19.06871975 9.18652916 19.09266281 C6.38320841 19.12428298 3.58152845 19.12435601 0.77807617 19.11694336 C-0.04655624 19.13334869 -0.87118866 19.14975403 -1.72080994 19.16665649 C-5.84952836 19.12202988 -8.44236731 18.7638114 -11.72306824 16.14175415 C-14.20898438 13.53344727 -14.20898438 13.53344727 -14.97070312 11.21704102 C-14.94621094 10.47583008 -14.92171875 9.73461914 -14.89648438 8.97094727 C-14.90035156 8.2271582 -14.90421875 7.48336914 -14.90820312 6.71704102 C-12.67006249 -0.27245963 -6.11689617 -0.0462825 0 0 Z " fill="#733489" transform="translate(359.208984375,105.466552734375)"/>
<path d="M0 0 C0.89017319 -0.00554901 1.78034637 -0.01109802 2.69749451 -0.01681519 C5.62822982 -0.02858774 8.55741088 -0.00436246 11.48803711 0.02148438 C13.53014556 0.02319604 15.57225622 0.02312923 17.61436462 0.0213623 C21.88895763 0.02301414 26.16302531 0.0416889 30.4375 0.07324219 C35.91424531 0.11294424 41.39030363 0.11728361 46.86716557 0.10977936 C51.08196802 0.1067089 55.29661626 0.11883252 59.51138115 0.13591003 C61.53077667 0.14293625 63.55018967 0.14606503 65.56959724 0.1452179 C68.39177126 0.14701716 71.21312434 0.16840935 74.03515625 0.1953125 C75.28445419 0.1909166 75.28445419 0.1909166 76.55899048 0.18643188 C82.36226993 0.27171692 85.74741271 1.40976622 89.95288086 5.61523438 C90.63792023 12.69397453 90.63792023 12.69397453 88.14038086 16.05273438 C83.76613785 19.17719366 79.31104315 18.78229229 74.15454102 18.80810547 C73.25505234 18.81628296 72.35556366 18.82446045 71.42881775 18.83288574 C68.44986639 18.85771496 65.47096253 18.8742475 62.49194336 18.88867188 C61.47490704 18.89399555 60.45787071 18.89931923 59.41001511 18.90480423 C54.02912907 18.93152225 48.64826614 18.95090339 43.26733398 18.96533203 C37.7063459 18.9819966 32.14594852 19.02679358 26.5851841 19.07770348 C22.31124172 19.11132992 18.03744055 19.12290427 13.76337814 19.12855911 C11.71322478 19.13528192 9.66308103 19.15053061 7.61305618 19.17444992 C4.74488082 19.20601182 1.87831265 19.20615198 -0.98999023 19.19873047 C-1.8369194 19.2151358 -2.68384857 19.23154114 -3.55644226 19.2484436 C-7.91439243 19.2022665 -9.54031255 19.01894692 -13.06948853 16.20767212 C-14.96865791 13.71808768 -15.75316874 12.68210189 -15.73461914 9.61523438 C-15.75911133 8.97585937 -15.78360352 8.33648437 -15.80883789 7.67773438 C-13.13228811 0.43046111 -6.65924637 -0.10630579 0 0 Z " fill="#25AB86" transform="translate(298.047119140625,140.384765625)"/>
<path d="M0 0 C0.92904144 -0.00890762 1.85808289 -0.01781525 2.8152771 -0.0269928 C5.8814754 -0.04827596 8.9455721 -0.0259683 12.01171875 -0.0012207 C14.14494034 -0.00272313 16.27816136 -0.00615316 18.41137695 -0.01142883 C22.88032514 -0.01576069 27.34855184 0.0010814 31.81738281 0.03320312 C37.54438708 0.07298388 43.2700384 0.06368478 48.99708557 0.03896809 C53.4015206 0.02478261 57.80563982 0.03487374 62.21005249 0.0524807 C64.32155605 0.05832905 66.43309193 0.05703031 68.54458618 0.04845619 C71.49659997 0.04046112 74.44663421 0.0647148 77.3984375 0.09765625 C78.27027679 0.08910614 79.14211609 0.08055603 80.04037476 0.07174683 C84.38826162 0.15545285 86.18022555 0.36425865 89.74145508 3.08317566 C91.69921875 5.76049805 91.69921875 5.76049805 92.32421875 9.26049805 C91.51718907 13.77986425 90.33541284 14.98762224 86.69921875 17.76049805 C83.59067627 18.48066873 80.56232058 18.43416838 77.38256836 18.39160156 C75.98659676 18.40233452 75.98659676 18.40233452 74.56242371 18.4132843 C71.49163466 18.43016893 68.42230584 18.4107712 65.3515625 18.3894043 C63.21594624 18.39023294 61.08033004 18.39269216 58.94471741 18.39671326 C54.47165705 18.39957101 49.9990975 18.38487051 45.52612305 18.35742188 C39.79020509 18.32331889 34.05518146 18.32936459 28.31922054 18.34808445 C23.91057367 18.35864767 19.50213525 18.34972305 15.09350777 18.33469963 C12.97838523 18.32951379 10.86324095 18.33000447 8.74812126 18.33624458 C5.79376186 18.3416893 2.84068761 18.32134585 -0.11352539 18.29394531 C-0.98895996 18.30047119 -1.86439453 18.30699707 -2.76635742 18.3137207 C-8.66769431 18.22055897 -8.66769431 18.22055897 -11.80857849 15.93809509 C-13.98105365 12.76776489 -14.36695161 10.59837884 -14.30078125 6.76049805 C-10.42989546 0.3599884 -7.19933596 -0.11326536 0 0 Z " fill="#BE5945" transform="translate(358.30078125,176.239501953125)"/>
<path d="M0 0 C0.92889542 -0.00861557 1.85779083 -0.01723114 2.81483459 -0.02610779 C5.88603566 -0.04881426 8.95632767 -0.04201994 12.02758789 -0.03295898 C14.1622393 -0.0381927 16.29688838 -0.04446825 18.43153381 -0.05174255 C22.90628945 -0.06215559 27.38072727 -0.0575725 31.85546875 -0.04296875 C37.59028347 -0.02578495 43.32409594 -0.04926706 49.05879879 -0.08445835 C53.46747988 -0.10641838 57.87592067 -0.10499411 62.28463936 -0.09669304 C64.39895285 -0.09587266 66.51328384 -0.10275256 68.62754631 -0.11746407 C71.58435534 -0.13488258 74.53935746 -0.12038918 77.49609375 -0.09765625 C78.80620926 -0.11519455 78.80620926 -0.11519455 80.14279175 -0.13308716 C84.49785698 -0.06495496 86.28724436 0.13271354 89.85597229 2.85414124 C91.81274414 5.53344727 91.81274414 5.53344727 92.43774414 9.03344727 C91.63130571 13.54950247 90.44190237 14.75861842 86.81274414 17.53344727 C83.7404811 18.25651433 80.74892015 18.21732784 77.60375977 18.18041992 C76.22482796 18.19356232 76.22482796 18.19356232 74.81803894 18.20697021 C71.78454143 18.22894578 68.75250602 18.21441776 65.71899414 18.19750977 C63.60819214 18.20087842 61.49739204 18.20573145 59.38659668 18.21200562 C54.96481847 18.21937447 50.5435456 18.20867068 46.12182617 18.18530273 C40.45538357 18.15681537 34.79012505 18.17321921 29.12372589 18.20316505 C24.76563605 18.22123744 20.4078267 18.21548018 16.04972839 18.20252609 C13.96054443 18.19919194 11.87133496 18.20327947 9.78218079 18.21492386 C6.86134446 18.22763126 3.94242234 18.20825662 1.02172852 18.18041992 C0.15923996 18.19054108 -0.7032486 18.20066223 -1.59187317 18.21109009 C-5.9796879 18.13366213 -7.66968533 17.9441504 -11.22351074 15.12411499 C-13.15008927 12.58247924 -13.85513314 11.58887497 -13.74975586 8.47094727 C-13.18725586 4.53344727 -13.18725586 4.53344727 -11.7263031 2.32069397 C-7.93257307 -0.34972956 -4.53766588 -0.03382578 0 0 Z " fill="#DC352E" transform="translate(296.187255859375,70.466552734375)"/>
<path d="M0 0 C3 2.0625 3 2.0625 5 5 C5.51500006 9.17978539 5.5755494 11.21262297 3.05639648 14.65893555 C2.17024658 15.476604 1.28409668 16.29427246 0.37109375 17.13671875 C-0.58087891 18.04357422 -1.53285156 18.95042969 -2.51367188 19.88476562 C-3.52844852 20.82063884 -4.54474425 21.75486741 -5.5625 22.6875 C-7.55824224 24.53081826 -9.53381907 26.39046984 -11.50390625 28.26171875 C-12.83143921 29.48314575 -12.83143921 29.48314575 -14.18579102 30.72924805 C-16.20457185 32.78028037 -16.20457185 32.78028037 -16.02880859 35.03222656 C-14.70350806 37.56709185 -13.08995635 39.22947542 -11.03515625 41.22265625 C-10.23529297 42.00833984 -9.43542969 42.79402344 -8.61132812 43.60351562 C-7.77021484 44.41498047 -6.92910156 45.22644531 -6.0625 46.0625 C-4.40542436 47.67620338 -2.75038336 49.29199946 -1.09765625 50.91015625 C-0.36039307 51.62308838 0.37687012 52.33602051 1.13647461 53.07055664 C3.80797464 55.83655491 4.93762621 57.51883075 5.4375 61.375 C5 65 5 65 2.9375 67.9375 C0 70 0 70 -3.3125 70.75 C-8.58408007 69.67781422 -11.1311149 66.61654122 -15 63 C-15.95559814 62.11038574 -16.91119629 61.22077148 -17.89575195 60.30419922 C-20.58001523 57.78590877 -23.22553384 55.23037088 -25.85742188 52.6574707 C-26.95898082 51.58783863 -28.06850666 50.52635474 -29.18554688 49.47290039 C-30.82044285 47.92933539 -32.42749603 46.36097688 -34.03125 44.78515625 C-34.7810614 44.09257469 -34.7810614 44.09257469 -35.54602051 43.38600159 C-38.23968149 40.67679841 -39.33975141 38.61967522 -39.48730469 34.87719727 C-39.00754706 31.0600475 -38.80629621 29.80873234 -36.171875 27.1796875 C-35.53185547 26.5206543 -34.89183594 25.86162109 -34.23242188 25.18261719 C-33.12737305 24.10222168 -33.12737305 24.10222168 -32 23 C-30.7634668 21.7301123 -30.7634668 21.7301123 -29.50195312 20.43457031 C-26.77463611 17.64051472 -24.01662061 14.88010901 -21.25 12.125 C-20.29540466 11.16683426 -19.34097657 10.20850187 -18.38671875 9.25 C-17.02740234 7.89261719 -17.02740234 7.89261719 -15.640625 6.5078125 C-14.82110352 5.68941895 -14.00158203 4.87102539 -13.15722656 4.02783203 C-9.03229891 0.15032534 -5.57882597 -1.04195971 0 0 Z " fill="#FEFDFA" transform="translate(101,230)"/>
<path d="M0 0 C2.54246113 0.67924314 3.73038272 1.63442413 5.66748047 3.40820312 C6.36035156 4.04218018 7.05322266 4.67615723 7.76708984 5.3293457 C11.89486325 9.26250198 15.97468497 13.24037164 20.00585938 17.2722168 C21.50097433 18.76511494 23.00396253 20.24978705 24.50732422 21.734375 C25.46744724 22.69156844 26.42710019 23.64923368 27.38623047 24.60742188 C28.24651855 25.46360107 29.10680664 26.31978027 29.99316406 27.2019043 C32.72461814 30.24639647 34.08194655 32.2072108 34.17529297 36.31445312 C31.38533823 44.84843234 22.14019766 51.68944699 15.92529297 57.87695312 C14.59208008 59.2159668 14.59208008 59.2159668 13.23193359 60.58203125 C12.3740625 61.43861328 11.51619141 62.29519531 10.63232422 63.17773438 C9.85993408 63.94899658 9.08754395 64.72025879 8.29174805 65.51489258 C3.07167339 70.42497961 3.07167339 70.42497961 -1.32470703 71.06445312 C-4.88720703 70.56445312 -4.88720703 70.56445312 -7.82470703 68.56445312 C-9.89937771 65.54675032 -10.71307059 63.60392935 -10.6159668 59.93164062 C-8.90418569 54.37136269 -3.5495555 50.44478885 0.61279297 46.56445312 C1.62632967 45.59108215 2.63807008 44.61583708 3.64794922 43.63867188 C6.11918954 41.26157404 8.60710614 38.90512512 11.11279297 36.56445312 C9.63308086 33.11551469 7.68919765 30.91962859 5.01513672 28.30664062 C4.21398437 27.51644531 3.41283203 26.72625 2.58740234 25.91210938 C1.75015625 25.09613281 0.91291016 24.28015625 0.05029297 23.43945312 C-1.60943325 21.81406606 -3.2670945 20.18656685 -4.92236328 18.55664062 C-5.65849854 17.83847168 -6.39463379 17.12030273 -7.15307617 16.38037109 C-10.09570239 13.29896129 -10.24148975 10.77858898 -10.15673828 6.54101562 C-9.88720703 4.56445312 -9.88720703 4.56445312 -8.38720703 2.06445312 C-5.5606791 0.36853637 -3.30612179 -0.1903456 0 0 Z " fill="#FEFDFA" transform="translate(195.88720703125,229.435546875)"/>
<path d="M0 0 C3.9375 0.625 3.9375 0.625 6.375 2.4375 C9.08072531 6.22551543 9.07959135 9.39713136 9.13037109 13.92895508 C9.15446548 15.88162041 9.15446548 15.88162041 9.17904663 17.87373352 C9.19053381 19.29732611 9.2011424 20.72092602 9.2109375 22.14453125 C9.21626118 22.86244024 9.22158485 23.58034924 9.22706985 24.32001305 C9.25377325 28.11998806 9.27315705 31.91993054 9.28759766 35.7199707 C9.30093594 38.85991555 9.3287888 41.99921036 9.36962891 45.13891602 C9.41900893 48.93555123 9.44372474 52.73159704 9.45082474 56.52853966 C9.45752644 57.97222011 9.47272065 59.41588795 9.49671555 60.85938454 C9.69578732 73.55977862 9.69578732 73.55977862 6.62353516 77.51831055 C3.9375 79.625 3.9375 79.625 0.4375 80.25 C-3.53495401 79.54063321 -5.23481707 78.45268293 -8.0625 75.625 C-9.46334688 72.82330623 -9.22085352 70.47692624 -9.25537109 67.34277344 C-9.26354858 66.69862991 -9.27172607 66.05448639 -9.28015137 65.39082336 C-9.30499777 63.25535001 -9.32152122 61.1199432 -9.3359375 58.984375 C-9.34126118 58.25451637 -9.34658485 57.52465775 -9.35206985 56.77268219 C-9.378801 52.90787303 -9.39817402 49.04309613 -9.41259766 45.17822266 C-9.42592724 41.98294382 -9.45376008 38.78830509 -9.49462891 35.59326172 C-9.54400716 31.73294227 -9.5687251 27.87320265 -9.57582474 24.01258087 C-9.58252852 22.54378177 -9.59772817 21.07499516 -9.62171555 19.60637665 C-9.82091519 6.67001142 -9.82091519 6.67001142 -6.66088867 2.72216797 C-3.09021687 -0.15973288 -3.09021687 -0.15973288 0 0 Z " fill="#FEFDF9" transform="translate(150.0625,70.375)"/>
<path d="M0 0 C3.9375 0.5625 3.9375 0.5625 6.4375 2 C8.66889969 5.81197447 8.56531321 9.30818297 7.9375 13.5625 C6.44074718 17.78382947 4.44138824 21.69926644 2.390625 25.67578125 C1.82301453 26.80775436 1.25540405 27.93972748 0.67059326 29.10600281 C-0.52840798 31.48826899 -1.73347229 33.86591846 -2.95117188 36.23852539 C-4.5067888 39.27029527 -6.03925656 42.31303494 -7.56403732 45.36040974 C-9.02827438 48.28270222 -10.50640752 51.19791473 -11.984375 54.11328125 C-12.80648468 55.74611809 -12.80648468 55.74611809 -13.64520264 57.41194153 C-14.16544006 58.42366928 -14.68567749 59.43539703 -15.22167969 60.4777832 C-15.67468445 61.36552933 -16.12768921 62.25327545 -16.59442139 63.16792297 C-18.55743002 66.36977834 -20.6771129 68.86980645 -24.0625 70.5625 C-28.03607645 71.09231019 -29.60420381 70.88131474 -32.9375 68.5625 C-35.1530243 65.43470099 -35.58905302 63.75953448 -35.47518921 59.97836304 C-34.58906913 54.79105819 -31.92720884 50.22485963 -29.55078125 45.58203125 C-28.98554245 44.45101486 -28.42030365 43.31999847 -27.8379364 42.15470886 C-26.64233609 39.77119245 -25.44113152 37.39174968 -24.22875977 35.0168457 C-22.68224314 31.98620236 -21.15899705 28.94458409 -19.64309406 25.89853382 C-18.18541208 22.97518573 -16.71144207 20.06010213 -15.23828125 17.14453125 C-14.69536942 16.05799759 -14.15245758 14.97146393 -13.59309387 13.852005 C-6.38288471 -0.21572374 -6.38288471 -0.21572374 0 0 Z " fill="#FEFDFA" transform="translate(159.0625,229.4375)"/>
<path d="M0 0 C1.12159012 -0.01606293 2.24318024 -0.03212585 3.39875793 -0.04867554 C8.52314372 -0.09315306 13.64744171 -0.13461883 18.77197266 -0.15722656 C21.4754423 -0.17056017 24.17815607 -0.19840435 26.88134766 -0.23925781 C30.77879568 -0.29399391 34.67521754 -0.31589615 38.57299805 -0.33056641 C39.77942459 -0.35323578 40.98585114 -0.37590515 42.22883606 -0.39926147 C51.58332295 -0.37568983 51.58332295 -0.37568983 55.29248047 2.50683594 C57.5222168 5.19287109 57.5222168 5.19287109 58.1472168 8.69287109 C57.43451071 12.68402517 56.40932516 14.38825154 53.5222168 17.19287109 C50.43665529 18.22139159 48.26377872 18.33773102 45.02856445 18.36987305 C43.90374664 18.38270828 42.77892883 18.39554352 41.62002563 18.4087677 C40.40438934 18.41615463 39.18875305 18.42354156 37.9362793 18.43115234 C36.68720795 18.43922409 35.4381366 18.44729584 34.1512146 18.45561218 C31.5066151 18.46945118 28.86214019 18.48046853 26.2175293 18.48803711 C22.83574575 18.49910428 19.45461971 18.53351424 16.07306862 18.57320881 C12.84003755 18.60568694 9.60694864 18.61015421 6.3737793 18.61865234 C4.55639755 18.64491447 4.55639755 18.64491447 2.70230103 18.67170715 C1.57117889 18.66878159 0.44005676 18.66585602 -0.7253418 18.6628418 C-2.2140126 18.67164116 -2.2140126 18.67164116 -3.73275757 18.68061829 C-7.24282502 18.05693539 -8.92156905 16.62452704 -11.4777832 14.19287109 C-13.02365196 11.10113358 -12.77137842 8.59857557 -12.4777832 5.19287109 C-8.95971213 0.58298486 -5.55835336 0.07236266 0 0 Z " fill="#B0B7BC" transform="translate(233.477783203125,352.80712890625)"/>
<path d="M0 0 C1.50438974 -0.01650508 3.00870282 -0.0437234 4.51269531 -0.08203125 C6.68604038 -0.13710114 8.85754313 -0.15872152 11.03149414 -0.17333984 C12.3343335 -0.19315918 13.63717285 -0.21297852 14.97949219 -0.23339844 C19.68798921 0.52917579 21.25615717 2.0003542 24.58227539 5.35009766 C25.37915039 7.41259766 25.37915039 7.41259766 25.33227539 9.35009766 C25.34774414 9.98947266 25.36321289 10.62884766 25.37915039 11.28759766 C24.09827799 14.60279682 21.53675405 16.53881718 18.58227539 18.35009766 C15.04296875 18.98120117 15.04296875 18.98120117 11.17211914 18.97900391 C10.13723106 18.98262184 10.13723106 18.98262184 9.08143616 18.98631287 C7.63170589 18.98533876 6.18193641 18.97204931 4.73242188 18.94702148 C2.52157675 18.91262568 0.31471724 18.92639995 -1.89624023 18.94580078 C-3.31097067 18.93890327 -4.72569087 18.92923172 -6.14038086 18.91650391 C-7.4166333 18.90562744 -8.69288574 18.89475098 -10.0078125 18.88354492 C-13.95091784 18.26668481 -15.61490534 17.13564976 -18.41772461 14.35009766 C-19.61944685 11.67546807 -19.83208869 9.25064619 -19.41772461 6.35009766 C-17.04272461 3.41259766 -17.04272461 3.41259766 -14.41772461 1.35009766 C-11.70206719 -1.36555976 -3.90676546 0.03140009 0 0 Z " fill="#F06162" transform="translate(425.417724609375,140.64990234375)"/>
<path d="M0 0 C0.73714737 -0.00619858 1.47429474 -0.01239716 2.23377991 -0.01878357 C3.78954755 -0.02587268 5.3453912 -0.02272341 6.90112305 -0.01000977 C9.274704 0.00384524 11.64433083 -0.03020427 14.01757812 -0.06835938 C15.53255304 -0.06931078 17.04753287 -0.06745057 18.5625 -0.0625 C19.62053078 -0.08238731 19.62053078 -0.08238731 20.69993591 -0.10267639 C24.5508506 -0.03036188 26.23508872 0.47778251 29.29516602 2.88696289 C31.34765625 5.56640625 31.34765625 5.56640625 31.97265625 9.06640625 C31.1935467 13.42941974 29.78174047 14.85108384 26.34765625 17.56640625 C21.37875106 19.22270798 16.20968614 18.79149855 11.00585938 18.80664062 C8.98655899 18.81633947 6.96828013 18.84737381 4.94921875 18.87890625 C3.03109375 18.88664062 3.03109375 18.88664062 1.07421875 18.89453125 C-0.68027588 18.9085498 -0.68027588 18.9085498 -2.47021484 18.92285156 C-6.00584924 18.52680843 -7.83173535 17.69919851 -10.65234375 15.56640625 C-12.92538557 12.15684353 -12.71478888 10.57458674 -12.33203125 6.6015625 C-10.28444023 0.4705572 -5.77709588 -0.04050683 0 0 Z " fill="#E4B517" transform="translate(418.65234375,211.43359375)"/>
<path d="M0 0 C2.01930038 -0.00969885 4.03757924 -0.04073319 6.05664062 -0.07226562 C7.33539063 -0.07742188 8.61414063 -0.08257812 9.93164062 -0.08789062 C11.68613525 -0.10190918 11.68613525 -0.10190918 13.47607422 -0.11621094 C17.95556649 0.38555818 20.51592107 2.09795232 23.65820312 5.24023438 C24.29335541 10.77513285 24.29335541 10.77513285 23.65820312 13.24023438 C20.95179502 16.64124989 19.47219565 18.09052031 15.140625 18.88720703 C13.80312252 18.91993155 12.46470786 18.92419805 11.12695312 18.90429688 C10.41341675 18.90908051 9.69988037 18.91386414 8.96472168 18.91879272 C7.4619729 18.92218248 5.95914946 18.91304445 4.45654297 18.89208984 C2.16400838 18.86530221 -0.12363221 18.89185968 -2.41601562 18.92382812 C-3.88087012 18.92052385 -5.34572158 18.91411723 -6.81054688 18.90429688 C-7.8310614 18.91947861 -7.8310614 18.91947861 -8.87219238 18.93496704 C-12.71870388 18.84085488 -14.26206933 18.30579197 -17.27319336 15.82983398 C-19.30956868 13.28057952 -20.01177446 12.35780641 -19.90429688 9.17773438 C-19.34179688 5.24023438 -19.34179688 5.24023438 -17.52929688 2.80273438 C-12.32394732 -0.91537245 -6.13770649 0.01785948 0 0 Z " fill="#D8352E" transform="translate(302.341796875,281.759765625)"/>
<path d="M0 0 C1.07030457 -0.00717545 1.07030457 -0.00717545 2.16223145 -0.01449585 C3.66498022 -0.0178856 5.16780366 -0.00874758 6.67041016 0.01220703 C8.96294475 0.03899467 11.25058534 0.01243719 13.54296875 -0.01953125 C15.00782324 -0.01622698 16.4726747 -0.00982036 17.9375 0 C18.95801453 -0.01518173 18.95801453 -0.01518173 19.99914551 -0.03067017 C23.845657 0.063442 25.38902246 0.59850491 28.40014648 3.07446289 C30.43652181 5.62371735 31.13872758 6.54649047 31.03125 9.7265625 C30.46875 13.6640625 30.46875 13.6640625 28.65625 16.1015625 C23.38584606 19.86613674 16.97354774 18.96012713 10.75463867 19.01416016 C9.36091389 19.0307 7.96727325 19.05796513 6.57397461 19.09619141 C-6.48853432 19.45220243 -6.48853432 19.45220243 -10.4375 16.390625 C-13.3320296 12.62125623 -13.3320296 12.62125623 -13.21875 9.6640625 C-13.22261719 9.0246875 -13.22648437 8.3853125 -13.23046875 7.7265625 C-11.05205306 1.3008447 -6.16250266 -0.09167676 0 0 Z " fill="#55A8BE" transform="translate(295.53125,105.3359375)"/>
<path d="M0 0 C2.00801503 -0.00968068 4.01588859 -0.04087853 6.02368164 -0.07226562 C7.29920898 -0.07742187 8.57473633 -0.08257812 9.88891602 -0.08789062 C11.63555542 -0.10190918 11.63555542 -0.10190918 13.41748047 -0.11621094 C17.13023129 0.28534593 19.53630313 1.30653635 22.71313477 3.24023438 C24.31059356 6.43515196 24.22130319 9.77232827 23.71313477 13.24023438 C21.50572796 16.20881594 20.22716104 17.06889228 16.71313477 18.24023438 C12.60082704 18.44457905 8.48835432 18.42603626 4.37133789 18.42553711 C2.35224183 18.42771913 0.3336964 18.4458756 -1.68530273 18.46484375 C-3.60342773 18.46774414 -3.60342773 18.46774414 -5.56030273 18.47070312 C-6.72996582 18.47481201 -7.89962891 18.4789209 -9.10473633 18.4831543 C-12.30685991 18.23870801 -14.46047381 17.74420013 -17.28686523 16.24023438 C-19.73481266 12.56831324 -20.0012241 9.5091741 -19.28686523 5.24023438 C-14.4486869 -1.26628132 -7.38615859 0.02155756 0 0 Z " fill="#C1401E" transform="translate(302.286865234375,246.759765625)"/>
<path d="M0 0 C0.73573242 -0.00478363 1.47146484 -0.00956726 2.22949219 -0.01449585 C3.77931873 -0.0178863 5.32921761 -0.00874342 6.87890625 0.01220703 C9.24381786 0.03899248 11.60398502 0.01243833 13.96875 -0.01953125 C15.47917708 -0.01622699 16.98960123 -0.0098204 18.5 0 C19.5533252 -0.01518173 19.5533252 -0.01518173 20.62792969 -0.03067017 C24.46513079 0.06038423 26.14818158 0.58376571 29.1953125 2.98681641 C31.25 5.6640625 31.25 5.6640625 31.875 9.1640625 C31.0761707 13.63750655 29.79271913 14.87017741 26.25 17.6640625 C23.45715648 18.16467366 21.28372951 18.36824731 18.5 18.328125 C17.39640137 18.33530045 17.39640137 18.33530045 16.27050781 18.34262085 C14.72068127 18.3460113 13.17078239 18.33686842 11.62109375 18.31591797 C9.25618214 18.28913252 6.89601498 18.31568667 4.53125 18.34765625 C3.02082292 18.34435199 1.51039877 18.3379454 0 18.328125 C-1.0533252 18.34330673 -1.0533252 18.34330673 -2.12792969 18.35879517 C-5.96513079 18.26774077 -7.64818158 17.74435929 -10.6953125 15.34130859 C-12.75 12.6640625 -12.75 12.6640625 -13.375 9.1640625 C-12.02503522 1.60425973 -7.00714401 -0.10099501 0 0 Z " fill="#356CB4" transform="translate(418.75,70.3359375)"/>
<path d="M0 0 C0.76171509 -0.0038269 1.52343018 -0.00765381 2.30822754 -0.01159668 C3.91529668 -0.01431313 5.52241024 -0.00697044 7.12939453 0.00976562 C9.58596587 0.03118214 12.03961311 0.00995822 14.49609375 -0.015625 C16.05990227 -0.01298167 17.62370898 -0.00785658 19.1875 0 C20.28608337 -0.01214539 20.28608337 -0.01214539 21.40686035 -0.02453613 C24.81073109 0.03788911 26.76827651 0.29470652 29.55273438 2.31835938 C31.40715124 4.98129259 31.61411598 7.22207867 31.72265625 10.43359375 C30.70985178 13.81170556 28.78811989 15.31574955 26.09375 17.53125 C23.3688962 18.03242036 21.27748559 18.23570211 18.5625 18.1953125 C17.84896362 18.20009613 17.13542725 18.20487976 16.40026855 18.20980835 C14.89751978 18.2131981 13.39469634 18.20406008 11.89208984 18.18310547 C9.59955525 18.15631783 7.31191466 18.18287531 5.01953125 18.21484375 C3.55467676 18.21153948 2.0898253 18.20513286 0.625 18.1953125 C-0.39551453 18.21049423 -0.39551453 18.21049423 -1.43664551 18.22598267 C-5.283157 18.1318705 -6.82652246 17.59680759 -9.83764648 15.12084961 C-11.87402181 12.57159515 -12.57622758 11.64882203 -12.46875 8.46875 C-11.90625 4.53125 -11.90625 4.53125 -10.36523438 2.31835938 C-7.00195328 -0.12596327 -4.00487184 -0.04427585 0 0 Z " fill="#F0EABE" transform="translate(294.90625,176.46875)"/>
<path d="M0 0 C3.9375 0.625 3.9375 0.625 6.375 2.4375 C9.84325052 7.29305073 9.23099933 12.7065212 9.3125 18.4375 C9.34988281 19.42298828 9.38726562 20.40847656 9.42578125 21.42382812 C9.52451122 29.59099081 9.52451122 29.59099081 6.6328125 33.28125 C3.9375 35.625 3.9375 35.625 0.4375 36.3125 C-3.85873151 35.46859738 -5.30852872 33.94596537 -8.0625 30.625 C-8.3925 30.295 -8.7225 29.965 -9.0625 29.625 C-9.39939464 25.90508612 -9.38763335 22.17069849 -9.4375 18.4375 C-9.47488281 17.39529297 -9.51226562 16.35308594 -9.55078125 15.27929688 C-9.64990048 6.61737767 -9.64990048 6.61737767 -6.79296875 2.92578125 C-3.12884313 -0.16172947 -3.12884313 -0.16172947 0 0 Z " fill="#FEFCF8" transform="translate(150.0625,167.375)"/>
</svg>
